<?xml version="1.0" standalone="no"?>
<svg version="1.0" xmlns="http://www.w3.org/2000/svg"
 width="706.000000pt" height="398.000000pt" viewBox="0 0 706.000000 398.000000"
 preserveAspectRatio="xMidYMid meet">

<g transform="translate(0.000000,398.000000) scale(0.100000,-0.100000)"
fill="#000000" stroke="none">
<path d="M2270 3411 c0 -10 -7 -24 -15 -31 -10 -8 -15 -31 -15 -71 l0 -59 50
0 50 0 0 52 c0 63 -26 128 -52 128 -11 0 -18 -7 -18 -19z"/>
<path d="M2885 2869 c-113 -40 -155 -70 -155 -110 0 -11 -11 -35 -25 -53 -14
-18 -25 -41 -25 -51 0 -23 61 -133 78 -140 20 -8 25 22 8 47 -22 31 -20 84 4
108 27 27 46 25 77 -6 l27 -27 50 18 c35 12 64 31 93 64 l42 46 15 -37 c9 -21
16 -45 16 -54 0 -14 3 -14 16 -3 8 7 22 26 30 42 13 24 13 34 3 58 -6 17 -20
34 -30 40 -11 5 -19 20 -19 34 0 28 -43 66 -74 64 -11 -1 -70 -19 -131 -40z"/>
<path d="M4825 2885 c-36 -35 -32 -73 11 -124 l36 -42 -26 -24 c-18 -16 -26
-34 -26 -57 0 -23 -12 -49 -40 -86 -42 -56 -50 -91 -24 -113 13 -10 24 -9 67
5 62 22 97 55 73 68 -20 11 -30 67 -17 101 8 21 17 27 39 27 41 0 52 -17 52
-82 l0 -58 52 -26 c42 -21 60 -25 96 -20 49 7 72 20 72 42 0 8 9 23 20 34 21
21 28 94 10 105 -6 4 -4 17 6 36 14 28 14 33 -3 62 -11 18 -29 33 -42 35 -12
2 -27 14 -33 27 -6 13 -18 27 -27 30 -58 24 -244 85 -256 85 -9 0 -27 -11 -40
-25z"/>
<path d="M5623 2753 l-83 -4 0 -76 c0 -62 4 -81 19 -97 20 -22 19 -13 61 -821
5 -104 16 -298 24 -430 8 -132 19 -355 26 -495 20 -481 32 -694 36 -702 3 -4
148 -7 323 -8 294 0 321 1 341 18 21 17 25 40 53 280 l31 262 -21 21 c-16 17
-35 22 -87 24 -37 1 -70 6 -75 11 -7 8 -31 168 -31 208 0 23 45 20 105 -8 58
-27 122 -93 150 -155 17 -39 18 -44 3 -55 -13 -9 -13 -13 -2 -24 8 -7 14 -27
14 -45 0 -77 -52 -484 -65 -509 -14 -27 -13 -28 14 -28 16 0 39 8 51 18 22 18
29 59 71 436 l13 109 -26 22 c-14 12 -31 38 -37 57 -18 55 -67 122 -110 152
-46 32 -131 66 -166 66 -14 0 -25 5 -25 11 0 6 -13 106 -30 222 -16 117 -40
296 -54 400 -53 387 -78 567 -102 746 -23 166 -24 188 -11 210 11 20 13 39 6
81 -4 30 -8 63 -8 74 -1 17 -7 18 -68 12 -38 -4 -83 -9 -101 -13 -28 -5 -34
-2 -39 16 -6 23 6 22 -200 14z m252 -758 c14 -104 34 -251 45 -325 11 -74 39
-272 63 -440 l44 -305 -44 -48 c-24 -26 -54 -70 -67 -97 l-23 -50 -7 143 c-4
78 -16 315 -26 527 -45 881 -50 979 -49 1007 1 30 23 -113 64 -412z m159
-1132 c3 -16 8 -54 12 -85 l6 -58 -66 0 c-46 0 -66 4 -66 13 1 36 78 157 100
157 5 0 11 -12 14 -27z"/>
<path d="M4133 2628 c-14 -18 -43 -75 -43 -86 0 -4 55 -39 122 -77 66 -38 133
-79 148 -92 16 -13 34 -23 41 -23 8 0 34 -11 58 -25 23 -14 47 -25 51 -25 9 0
60 83 60 98 0 9 -388 232 -416 240 -6 2 -15 -3 -21 -10z"/>
<path d="M3085 2227 c-4 -10 -5 -21 -1 -24 3 -4 6 2 6 13 0 15 2 16 9 4 6 -8
8 -17 5 -21 -5 -9 24 -5 31 4 3 4 2 5 -1 2 -4 -2 -15 6 -24 18 -17 20 -19 21
-25 4z"/>
<path d="M5186 2211 c-3 -4 4 -7 14 -6 27 2 33 10 10 12 -11 1 -22 -2 -24 -6z"/>
<path d="M5245 2209 c-4 -6 -5 -12 -2 -15 2 -3 7 2 10 11 7 17 1 20 -8 4z"/>
<path d="M4905 2180 c-4 -6 -10 -8 -14 -6 -3 3 -7 -4 -7 -14 0 -22 12 -17 26
11 11 19 6 27 -5 9z"/>
<path d="M2580 2145 c0 -5 5 -17 10 -25 5 -8 10 -10 10 -5 0 6 -5 17 -10 25
-5 8 -10 11 -10 5z"/>
<path d="M4857 2130 c-3 -11 -1 -20 4 -20 5 0 9 9 9 20 0 11 -2 20 -4 20 -2 0
-6 -9 -9 -20z"/>
<path d="M3161 2114 c0 -11 3 -14 6 -6 3 7 2 16 -1 19 -3 4 -6 -2 -5 -13z"/>
<path d="M5280 2121 c0 -5 5 -13 10 -16 6 -3 10 -2 10 4 0 5 -4 13 -10 16 -5
3 -10 2 -10 -4z"/>
<path d="M2560 1980 c0 -57 3 -101 6 -97 7 7 6 189 -1 196 -3 2 -5 -42 -5 -99z"/>
<path d="M3173 2020 c0 -25 2 -35 4 -22 2 12 2 32 0 45 -2 12 -4 2 -4 -23z"/>
<path d="M4833 2025 c0 -22 2 -30 4 -17 2 12 2 30 0 40 -3 9 -5 -1 -4 -23z"/>
<path d="M2677 1790 c-81 -105 -147 -193 -147 -196 0 -11 77 -84 88 -84 6 0
45 46 86 103 77 105 127 168 184 236 17 21 32 45 32 54 0 11 11 17 38 19 30 2
38 7 40 26 3 21 0 22 -65 22 -37 0 -77 3 -89 6 -17 5 -44 -24 -167 -186z"/>
<path d="M4760 1778 c-14 -11 -38 -25 -53 -31 l-29 -10 4 -112 c3 -120 16
-158 44 -130 17 17 19 39 2 29 -8 -5 -9 -2 -3 12 4 10 7 30 6 43 -1 17 3 22
14 17 13 -5 14 -2 4 15 -9 17 -8 20 2 14 9 -6 11 -2 7 13 -4 12 -3 20 2 17 14
-9 31 51 28 98 l-3 45 -25 -20z"/>
<path d="M4014 1700 c-29 -12 -54 -49 -54 -80 0 -25 23 -67 44 -82 18 -13 96
-9 124 6 34 17 94 36 115 36 9 0 21 9 27 21 14 26 -3 49 -35 49 -12 0 -28 7
-35 15 -7 8 -22 15 -34 15 -11 1 -32 7 -46 15 -28 16 -74 18 -106 5z"/>
<path d="M4987 1673 c-9 -8 -9 -81 -1 -122 6 -27 11 -32 33 -29 25 3 26 5 26
75 0 51 -4 74 -13 78 -19 7 -37 6 -45 -2z"/>
<path d="M5251 1667 c-6 -6 -11 -39 -11 -74 0 -59 1 -63 26 -69 17 -4 29 -2
35 7 14 22 11 127 -3 136 -20 12 -35 12 -47 0z"/>
<path d="M4775 1640 c-3 -5 -1 -10 4 -10 6 0 11 5 11 10 0 6 -2 10 -4 10 -3 0
-8 -4 -11 -10z"/>
<path d="M4830 1606 c0 -14 4 -27 8 -30 5 -3 6 8 4 25 -5 35 -12 38 -12 5z"/>
<path d="M4791 1594 c0 -11 3 -14 6 -6 3 7 2 16 -1 19 -3 4 -6 -2 -5 -13z"/>
<path d="M4825 1550 c3 -5 8 -10 11 -10 2 0 4 5 4 10 0 6 -5 10 -11 10 -5 0
-7 -4 -4 -10z"/>
<path d="M5061 1544 c0 -11 3 -14 6 -6 3 7 2 16 -1 19 -3 4 -6 -2 -5 -13z"/>
<path d="M2647 1524 c-3 -5 1 -15 9 -22 16 -14 18 -5 5 17 -5 7 -11 9 -14 5z"/>
<path d="M3900 1456 l-23 -73 -64 -6 c-35 -4 -68 -9 -73 -12 -6 -4 -10 -26
-10 -50 0 -78 7 -75 -176 -75 -103 0 -164 4 -164 10 0 12 -142 14 -156 1 -5
-4 -21 -11 -36 -15 -23 -5 -28 -3 -28 13 0 27 -50 38 -67 15 -7 -10 -13 -14
-13 -9 0 5 -5 4 -12 -3 -7 -7 -19 -12 -27 -12 -11 0 -10 4 5 15 18 14 17 15
-8 4 -15 -7 -25 -16 -22 -20 3 -5 1 -9 -4 -9 -14 0 -42 -63 -42 -94 0 -14 -5
-26 -11 -26 -5 0 -8 -4 -4 -9 3 -5 -11 -15 -30 -21 -25 -8 -43 -24 -61 -55
-23 -40 -25 -54 -26 -162 0 -78 3 -118 11 -121 6 -2 11 -9 11 -15 0 -7 13 -27
29 -46 26 -31 32 -34 84 -34 55 0 72 -16 19 -18 l-27 -1 30 -8 c29 -7 29 -8 5
-10 -18 -2 -20 -4 -7 -7 14 -4 17 -16 17 -73 0 -68 0 -69 25 -66 32 3 84 41
95 69 6 14 9 -39 9 -146 1 -155 0 -168 -16 -165 -14 3 -19 15 -21 62 -3 60
-24 101 -36 70 -4 -10 -2 -13 7 -9 6 4 1 -2 -12 -13 -17 -14 -31 -18 -45 -12
-12 4 -32 3 -46 -2 -16 -6 -26 -6 -28 2 -2 5 -8 8 -13 4 -5 -3 -9 1 -9 9 0 8
-6 20 -14 26 -27 23 -37 -12 -34 -125 l3 -109 725 -3 c399 -1 735 0 747 3 45
11 63 44 63 112 0 38 4 63 11 63 6 0 30 -12 55 -26 66 -39 74 -97 16 -124 -18
-9 -30 -19 -26 -23 8 -8 95 3 109 13 24 18 55 21 55 7 0 -24 23 -27 201 -27
l169 0 0 118 c-1 91 -4 121 -16 137 -16 20 -16 20 -10 -1 4 -14 -1 -27 -19
-44 -22 -21 -29 -22 -59 -13 -19 6 -40 7 -47 3 -7 -5 -23 -2 -36 7 -18 12 -21
18 -11 24 7 5 8 9 3 9 -23 0 -35 -26 -35 -74 l0 -51 -51 -16 -50 -16 -65 34
c-35 19 -64 35 -64 37 0 1 -11 40 -25 85 l-24 83 19 39 c25 48 25 49 -4 49
-31 0 -51 20 -65 62 -5 18 -20 65 -32 103 -20 60 -24 100 -28 277 -6 201 -7
207 -30 232 -14 15 -41 29 -62 32 -31 5 -38 11 -46 38 -12 41 -37 41 -41 -1
l-3 -33 -69 0 -69 0 -3 63 -3 62 -67 3 c-78 3 -77 2 -48 87 25 73 25 75 -3 75
-20 0 -27 -10 -47 -74z m-630 -271 c0 -18 5 -25 20 -25 15 0 20 7 20 25 0 14
5 25 10 25 6 0 10 -29 10 -66 l0 -65 -37 3 -38 3 -3 63 c-2 38 1 62 8 62 5 0
10 -11 10 -25z m490 0 c0 -18 5 -25 20 -25 15 0 20 7 20 25 0 14 5 25 10 25 7
0 10 -24 8 -62 l-3 -63 -35 0 -35 0 -3 63 c-2 38 1 62 8 62 5 0 10 -11 10 -25z
m629 -477 c5 -13 12 -34 16 -47 l7 -24 -27 21 c-15 12 -34 22 -41 22 -9 0 -5
8 9 24 28 30 26 30 36 4z m-1180 -31 c-2 -1 -12 -9 -21 -16 -15 -12 -18 -11
-18 3 0 10 8 16 22 16 12 0 19 -1 17 -3z m101 -47 c0 -23 4 -30 20 -30 16 0
20 7 20 32 0 22 3 29 11 21 5 -5 9 -37 7 -69 l-3 -59 -35 0 -35 0 -3 68 c-2
42 1 67 8 67 5 0 10 -13 10 -30z m490 -6 c0 -17 5 -24 20 -24 16 0 20 7 20 32
0 22 3 29 11 21 5 -5 9 -37 7 -69 l-3 -59 -35 0 -35 0 -3 68 c-2 46 1 67 8 62
5 -3 10 -17 10 -31z m654 -123 c14 -49 14 -57 0 -87 -9 -19 -20 -37 -25 -40
-5 -3 -9 41 -9 97 0 111 8 118 34 30z m46 -152 c7 -27 10 -52 8 -54 -2 -3 -14
2 -26 11 -22 15 -28 47 -16 78 11 28 22 17 34 -35z m110 -144 c24 -13 24 -14
4 -15 -12 0 -27 7 -34 15 -16 19 -3 19 30 0z"/>
<path d="M3156 1503 c-6 -14 -5 -15 5 -6 7 7 10 15 7 18 -3 3 -9 -2 -12 -12z"/>
<path d="M2590 1394 c0 -8 -4 -13 -9 -10 -5 4 -12 -8 -16 -26 -4 -18 -20 -87
-37 -153 -16 -66 -51 -214 -76 -330 -40 -177 -46 -219 -40 -265 4 -30 3 -77
-2 -103 -6 -26 -10 -66 -10 -87 0 -22 -7 -73 -17 -115 -15 -69 -18 -75 -41
-75 -24 0 -24 1 -8 25 19 29 21 61 4 72 -7 4 -107 6 -222 4 l-209 -3 7 33 c4
19 9 41 9 49 1 9 -23 28 -60 48 -35 18 -63 39 -63 46 0 8 19 36 43 62 64 72
117 145 117 161 0 17 -59 53 -77 46 -7 -3 -52 -54 -99 -114 -46 -59 -89 -111
-95 -115 -6 -3 -35 5 -64 18 l-55 23 0 52 c0 42 -4 55 -23 70 -12 10 -30 39
-40 64 -47 123 -152 199 -287 207 -107 6 -177 -21 -248 -96 -33 -35 -59 -75
-70 -105 -11 -31 -26 -53 -40 -60 -32 -15 -36 -44 -23 -170 30 -280 50 -391
72 -409 20 -17 75 -18 839 -18 l818 0 22 98 c17 73 29 104 50 125 17 17 32 49
40 85 8 31 26 80 41 107 16 31 38 106 58 200 18 83 38 168 44 190 9 27 11 80
7 160 -5 119 -5 120 -30 123 -45 5 -110 33 -104 44 4 6 2 8 -3 5 -14 -9 -57
29 -48 42 3 6 0 9 -7 6 -19 -7 -47 47 -41 79 3 14 3 26 -1 26 -3 0 -6 -7 -6
-16z m-1260 -456 c75 -32 150 -116 174 -195 l7 -23 -302 0 -301 0 5 30 c10 48
53 106 109 149 95 71 203 84 308 39z m211 -504 c107 -47 198 -90 203 -95 6 -5
-68 -9 -186 -9 -189 0 -197 1 -252 26 -31 14 -56 29 -54 33 8 19 84 131 89
131 3 0 93 -39 200 -86z"/>
<path d="M2940 1375 c0 -16 39 -46 51 -40 5 4 7 10 4 15 -3 5 3 11 12 13 10 2
3 2 -16 0 -21 -3 -37 0 -42 9 -5 7 -9 8 -9 3z"/>
<path d="M4835 1329 c-4 -6 -5 -12 -2 -15 2 -3 7 2 10 11 7 17 1 20 -8 4z"/>
<path d="M5236 1325 c-9 -26 -7 -32 5 -12 6 10 9 21 6 23 -2 3 -7 -2 -11 -11z"/>
<path d="M3023 1275 c0 -8 4 -12 9 -9 5 3 6 10 3 15 -9 13 -12 11 -12 -6z"/>
<path d="M5245 1260 c-35 -39 -99 -61 -157 -55 -40 4 -47 3 -30 -4 21 -10 22
-14 22 -168 0 -122 5 -177 20 -243 11 -47 25 -111 31 -143 5 -32 25 -87 44
-123 19 -36 35 -74 35 -85 0 -30 28 -91 50 -106 12 -9 24 -39 35 -91 28 -132
15 -122 162 -122 71 0 134 4 141 9 23 14 9 44 -34 73 -37 25 -43 34 -53 88 -7
33 -14 60 -17 60 -3 0 -18 -8 -32 -19 -15 -10 -37 -22 -50 -26 l-23 -7 17 33
c13 27 15 46 9 103 -4 39 -7 103 -6 142 2 56 -12 139 -65 380 -36 170 -70 312
-73 317 -4 4 -16 -2 -26 -13z"/>
<path d="M5105 1220 c-3 -5 -2 -10 4 -10 5 0 13 5 16 10 3 6 2 10 -4 10 -5 0
-13 -4 -16 -10z"/>
<path d="M4832 1150 c0 -14 2 -19 5 -12 2 6 2 18 0 25 -3 6 -5 1 -5 -13z"/>
<path d="M2880 1120 c-9 -6 -10 -10 -3 -10 6 0 15 5 18 10 8 12 4 12 -15 0z"/>
<path d="M2910 1106 c0 -2 9 -6 20 -9 11 -3 18 -1 14 4 -5 9 -34 13 -34 5z"/>
<path d="M4832 1064 c-1 -14 2 -23 8 -19 12 7 14 45 2 45 -4 0 -9 -11 -10 -26z"/>
<path d="M4771 1044 c0 -11 3 -14 6 -6 3 7 2 16 -1 19 -3 4 -6 -2 -5 -13z"/>
<path d="M2860 1039 c0 -5 5 -7 10 -4 6 3 10 8 10 11 0 2 -4 4 -10 4 -5 0 -10
-5 -10 -11z"/>
<path d="M4690 1018 c-17 -28 -20 -51 -20 -147 0 -97 3 -119 20 -146 41 -67
45 -55 45 141 0 198 -6 216 -45 152z"/>
<path d="M4831 1014 c0 -11 3 -14 6 -6 3 7 2 16 -1 19 -3 4 -6 -2 -5 -13z"/>
<path d="M4793 975 c0 -27 2 -38 4 -22 2 15 2 37 0 50 -2 12 -4 0 -4 -28z"/>
<path d="M4761 974 c0 -11 3 -14 6 -6 3 7 2 16 -1 19 -3 4 -6 -2 -5 -13z"/>
<path d="M4833 950 c0 -25 2 -35 4 -22 2 12 2 32 0 45 -2 12 -4 2 -4 -23z"/>
<path d="M4792 885 c0 -16 2 -22 5 -12 2 9 2 23 0 30 -3 6 -5 -1 -5 -18z"/>
<path d="M2831 754 c0 -11 3 -14 6 -6 3 7 2 16 -1 19 -3 4 -6 -2 -5 -13z"/>
<path d="M2830 691 c0 -17 4 -32 8 -35 4 -2 6 11 4 30 -5 42 -12 45 -12 5z"/>
<path d="M4731 614 c0 -11 3 -14 6 -6 3 7 2 16 -1 19 -3 4 -6 -2 -5 -13z"/>
<path d="M4764 515 c-3 -8 -4 -20 -2 -27 3 -7 7 -1 10 15 6 29 1 36 -8 12z"/>
<path d="M4835 490 c-17 -8 -17 -9 7 -7 15 1 24 5 22 9 -3 4 -6 8 -7 7 -1 0
-11 -4 -22 -9z"/>
<path d="M3131 454 c0 -11 3 -14 6 -6 3 7 2 16 -1 19 -3 4 -6 -2 -5 -13z"/>
<path d="M4786 445 c-9 -26 -7 -32 5 -12 6 10 9 21 6 23 -2 3 -7 -2 -11 -11z"/>
<path d="M4762 410 c0 -14 2 -19 5 -12 2 6 2 18 0 25 -3 6 -5 1 -5 -13z"/>
<path d="M4949 368 c-5 -16 -4 -46 2 -42 4 2 7 13 6 24 -1 17 -5 26 -8 18z"/>
</g>
</svg>
